<svg class="flw-l-p" width="193" height="193" viewBox="0 0 193 193" fill="none" xmlns="http://www.w3.org/2000/svg">
    <path id="flw-fill" fill-rule="evenodd" clip-rule="evenodd" d="M97.0864 103.535C113.108 131.662 135.538 187.916 97.0864 187.916C58.6344 187.916 81.0647 131.662 97.0864 103.535ZM89.3809 96.458C61.2539 112.48 5 134.91 5 96.458C5 58.006 61.2539 80.4363 89.3809 96.458ZM89.4782 90.0225C58.2604 81.4628 2.62227 57.5459 29.8119 30.3562C57.0016 3.16656 80.9185 58.8047 89.4782 90.0225ZM95.9137 89.3809C79.892 61.2539 57.4617 4.99998 95.9137 4.99998C134.366 4.99998 111.935 61.2539 95.9137 89.3809ZM101.127 92.2001C109.687 60.9824 133.604 5.34421 160.794 32.5339C187.983 59.7235 132.345 83.6404 101.127 92.2001ZM101.127 101.127C132.345 109.687 187.983 133.604 160.794 160.794C133.604 187.983 109.687 132.345 101.127 101.127ZM103.619 96.458C131.746 80.4363 188 58.006 188 96.458C188 134.91 131.746 112.48 103.619 96.458ZM91.6557 101.127C83.096 132.345 59.1791 187.983 31.9894 160.794C4.7998 133.604 60.438 109.687 91.6557 101.127Z" fill="#FFD5D5"/>
    <path id="flw-outline" d="M97.0864 103.535L100.997 101.308L97.0864 94.4433L93.1763 101.308L97.0864 103.535ZM89.3809 96.458L91.6082 100.368L98.4727 96.458L91.6082 92.5478L89.3809 96.458ZM89.4782 90.0225L88.2883 94.3623L95.9071 96.4514L93.818 88.8326L89.4782 90.0225ZM95.9137 89.3809L92.0035 91.6082L95.9137 98.4727L99.8238 91.6082L95.9137 89.3809ZM101.127 92.2002L96.7875 91.0102L94.6985 98.629L102.317 96.54L101.127 92.2002ZM160.794 32.5339L157.612 35.7159L157.612 35.7159L160.794 32.5339ZM101.127 101.127L102.317 96.7875L94.6985 94.6985L96.7875 102.317L101.127 101.127ZM160.794 160.794L163.976 163.976L163.976 163.976L160.794 160.794ZM103.619 96.458L101.392 92.5479L94.5273 96.458L101.392 100.368L103.619 96.458ZM91.6557 101.127L95.9956 102.317L98.0846 94.6985L90.4658 96.7875L91.6557 101.127ZM31.9894 160.794L28.8075 163.976L28.8075 163.976L31.9894 160.794ZM93.1763 105.762C101.085 119.647 110.392 140.189 113.07 156.982C114.422 165.456 113.947 172.162 111.593 176.565C109.499 180.482 105.453 183.416 97.0864 183.416V192.416C107.945 192.416 115.515 188.318 119.53 180.808C123.284 173.785 123.41 164.669 121.958 155.564C119.029 137.198 109.109 115.55 100.997 101.308L93.1763 105.762ZM97.0864 183.416C88.7193 183.416 84.6736 180.482 82.58 176.565C80.2261 172.162 79.751 165.456 81.1026 156.982C83.7809 140.189 93.0878 119.647 100.997 105.762L93.1763 101.308C85.0634 115.55 75.1442 137.198 72.215 155.564C70.7628 164.669 70.8885 173.785 74.6429 180.808C78.6575 188.318 86.2275 192.416 97.0864 192.416V183.416ZM87.1536 92.5478C73.2693 100.457 52.7265 109.763 35.9341 112.442C27.4598 113.793 20.7541 113.318 16.3506 110.964C12.4341 108.871 9.5 104.825 9.5 96.458H0.5C0.5 107.317 4.59763 114.887 12.1077 118.902C19.1308 122.656 28.2465 122.782 37.3516 121.329C55.7178 118.4 77.3655 108.481 91.6082 100.368L87.1536 92.5478ZM9.5 96.458C9.5 88.0909 12.4341 84.0452 16.3506 81.9516C20.7541 79.5976 27.4598 79.1226 35.9341 80.4742C52.7265 83.1525 73.2693 92.4594 87.1536 100.368L91.6082 92.5478C77.3655 84.4349 55.7178 74.5158 37.3516 71.5865C28.2465 70.1343 19.1308 70.2601 12.1077 74.0145C4.59763 78.0291 0.5 85.5991 0.5 96.458H9.5ZM90.6682 85.6827C75.2581 81.4574 54.1513 73.5124 40.3834 63.5322C33.4354 58.4956 29.0297 53.4181 27.5804 48.6399C26.2915 44.3901 27.0775 39.4546 32.9939 33.5382L26.6299 27.1742C18.9515 34.8527 16.4962 43.1029 18.9679 51.2521C21.2792 58.8729 27.6361 65.4076 35.1012 70.819C50.1594 81.7346 72.4805 90.0279 88.2883 94.3623L90.6682 85.6827ZM32.9939 33.5382C38.9103 27.6218 43.8458 26.8358 48.0956 28.1247C52.8738 29.574 57.9513 33.9797 62.9878 40.9277C72.9681 54.6956 80.9131 75.8025 85.1384 91.2125L93.818 88.8326C89.4836 73.0248 81.1903 50.7037 70.2747 35.6455C64.8633 28.1804 58.3286 21.8236 50.7078 19.5122C42.5586 17.0405 34.3083 19.4958 26.6299 27.1742L32.9939 33.5382ZM99.8238 87.1536C91.915 73.2693 82.6082 52.7265 79.9299 35.9341C78.5783 27.4598 79.0533 20.7541 81.4073 16.3506C83.5009 12.4341 87.5466 9.50001 95.9137 9.50001V0.500008C85.0548 0.500008 77.4848 4.59763 73.4701 12.1077C69.7158 19.1308 69.59 28.2465 71.0422 37.3516C73.9715 55.7179 83.8906 77.3655 92.0035 91.6082L99.8238 87.1536ZM95.9137 9.50001C104.281 9.50001 108.326 12.4341 110.42 16.3506C112.774 20.7541 113.249 27.4598 111.897 35.9341C109.219 52.7265 99.9123 73.2693 92.0035 87.1536L99.8238 91.6082C107.937 77.3655 117.856 55.7179 120.785 37.3516C122.237 28.2465 122.112 19.1308 118.357 12.1077C114.343 4.59763 106.773 0.500008 95.9137 0.500008V9.50001ZM105.467 93.3901C109.692 77.9801 117.637 56.8732 127.618 43.1053C132.654 36.1574 137.732 31.7516 142.51 30.3024C146.76 29.0134 151.695 29.7994 157.612 35.7159L163.976 29.3519C156.297 21.6735 148.047 19.2182 139.898 21.6898C132.277 24.0012 125.742 30.358 120.331 37.8231C109.415 52.8814 101.122 75.2025 96.7875 91.0102L105.467 93.3901ZM157.612 35.7159C163.528 41.6323 164.314 46.5678 163.025 50.8176C161.576 55.5957 157.17 60.6733 150.222 65.7098C136.454 75.69 115.347 83.635 99.9374 87.8604L102.317 96.54C118.125 92.2056 140.446 83.9122 155.504 72.9967C162.969 67.5853 169.326 61.0506 171.638 53.4298C174.109 45.2806 171.654 37.0303 163.976 29.3519L157.612 35.7159ZM99.9374 105.467C115.347 109.693 136.454 117.638 150.222 127.618C157.17 132.654 161.576 137.732 163.025 142.51C164.314 146.76 163.528 151.695 157.612 157.612L163.976 163.976C171.654 156.297 174.109 148.047 171.638 139.898C169.326 132.277 162.969 125.742 155.504 120.331C140.446 109.415 118.125 101.122 102.317 96.7875L99.9374 105.467ZM157.612 157.612C151.695 163.528 146.76 164.314 142.51 163.025C137.732 161.576 132.654 157.17 127.618 150.222C117.637 136.454 109.693 115.347 105.467 99.9374L96.7875 102.317C101.122 118.125 109.415 140.446 120.331 155.504C125.742 162.969 132.277 169.326 139.898 171.638C148.047 174.109 156.297 171.654 163.976 163.976L157.612 157.612ZM105.846 100.368C119.731 92.4594 140.273 83.1525 157.066 80.4742C165.54 79.1226 172.246 79.5976 176.649 81.9516C180.566 84.0452 183.5 88.0909 183.5 96.458H192.5C192.5 85.5991 188.402 78.0291 180.892 74.0145C173.869 70.2601 164.753 70.1344 155.648 71.5866C137.282 74.5158 115.634 84.435 101.392 92.5479L105.846 100.368ZM183.5 96.458C183.5 104.825 180.566 108.871 176.649 110.964C172.246 113.318 165.54 113.793 157.066 112.442C140.273 109.763 119.731 100.457 105.846 92.5479L101.392 100.368C115.634 108.481 137.282 118.4 155.648 121.329C164.753 122.782 173.869 122.656 180.892 118.902C188.402 114.887 192.5 107.317 192.5 96.458H183.5ZM87.3159 99.9374C83.0906 115.347 75.1456 136.454 65.1654 150.222C60.1289 157.17 55.0513 161.576 50.2731 163.025C46.0233 164.314 41.0878 163.528 35.1714 157.612L28.8075 163.976C36.4859 171.654 44.7361 174.109 52.8853 171.638C60.5061 169.326 67.0409 162.969 72.4522 155.504C83.3678 140.446 91.6612 118.125 95.9956 102.317L87.3159 99.9374ZM35.1714 157.612C29.255 151.695 28.469 146.76 29.758 142.51C31.2072 137.732 35.6129 132.654 42.5609 127.618C56.3288 117.637 77.4357 109.693 92.8457 105.467L90.4658 96.7875C74.658 101.122 52.3369 109.415 37.2787 120.331C29.8136 125.742 23.4568 132.277 21.1454 139.898C18.6737 148.047 21.1291 156.297 28.8075 163.976L35.1714 157.612Z" fill="black"/>
    <circle id="center" cx="96.1858" cy="96.1858" r="22.4474" fill="#FFDA7C" stroke="black" stroke-width="9"/>
</svg>
