<svg width="101" height="110" viewBox="0 0 101 110" fill="none" xmlns="http://www.w3.org/2000/svg">
    <g id="flw-s-p">
        <path id="fill" fill-rule="evenodd" clip-rule="evenodd" d="M51.1695 54.4917C40.9407 37.6611 26.6204 4 51.1695 4C75.7186 4 61.3983 37.6611 51.1695 54.4917ZM50.4982 56.5611C50.573 56.4245 50.6486 56.2872 50.725 56.1491C50.6486 56.0111 50.573 55.8738 50.4982 55.7372C50.4234 55.8738 50.3477 56.0111 50.2714 56.1492C50.3477 56.2872 50.4234 56.4245 50.4982 56.5611ZM94.2189 31.3269C104.02 48.3025 82.8441 54.5472 63.8875 56.1492C82.8441 57.7511 104.02 63.9958 94.2189 80.9714C84.2686 98.2058 67.9331 82.2595 57.0632 66.4006C65.3981 83.7637 71.1222 106 51.1695 106C27.1281 106 40.365 73.7167 50.53 56.5736L50.4953 56.5728C50.3414 56.5763 50.1864 56.5794 50.0305 56.5823C40.3266 73.9418 18.8513 101.884 6.77752 80.9714C-3.02344 63.9956 18.1525 57.751 37.1093 56.1491C18.1525 54.5472 -3.02357 48.3026 6.77741 31.3268C18.8512 10.4143 40.3265 38.3564 50.0304 55.7159C50.1877 55.7187 50.344 55.7219 50.4993 55.7254C50.6539 55.7219 50.8094 55.7188 50.9659 55.7159C60.6698 38.3564 82.1451 10.4145 94.2189 31.3269Z" fill="#FFD5D5"/>
        <path id="outline" fill-rule="evenodd" clip-rule="evenodd" d="M60.7608 22.3472C59.4072 30.3015 55.3331 39.7508 51.1695 47.4525C47.0059 39.7508 42.9318 30.3015 41.5782 22.3472C40.7288 17.3557 41.0691 13.6157 42.4147 11.2565C43.5682 9.234 45.8946 7.5 51.1695 7.5C56.4443 7.5 58.7707 9.234 59.9243 11.2565C61.2698 13.6157 61.6102 17.3557 60.7608 22.3472ZM51.1695 0.5C44.1698 0.5 39.0803 2.97364 36.3341 7.78851C33.78 12.2668 33.7368 17.994 34.6774 23.5215C35.0948 25.9745 35.7296 28.5195 36.5212 31.0882C35.0201 29.537 33.4844 28.0938 31.9296 26.805C27.6129 23.2266 22.6314 20.4004 17.476 20.3733C11.9331 20.3441 7.24617 23.5148 3.74632 29.5768C0.24646 35.6387 -0.156032 41.2831 2.64069 46.0688C5.2419 50.5199 10.1802 53.421 15.4375 55.3701C16.1758 55.6438 16.9329 55.9033 17.706 56.1491C16.9329 56.3949 16.1758 56.6543 15.4376 56.928C10.1803 58.8772 5.24201 61.7782 2.6408 66.2293C-0.155919 71.015 0.246572 76.6594 3.74643 82.7214C7.24628 88.7833 11.9332 91.9541 17.4761 91.9249C22.6315 91.8977 27.613 89.0715 31.9297 85.4932C33.1715 84.4638 34.4011 83.336 35.6106 82.1333C35.2344 83.6037 34.9193 85.0565 34.6774 86.4785C33.7368 92.006 33.78 97.7332 36.3342 102.211C39.0803 107.026 44.1698 109.5 51.1695 109.5C58.1692 109.5 63.2586 107.026 66.0048 102.211C68.559 97.7332 68.6022 92.006 67.6616 86.4785C67.5116 85.5969 67.3335 84.7035 67.1301 83.8013C67.7716 84.3899 68.4174 84.955 69.0667 85.4932C73.3834 89.0716 78.3649 91.8978 83.5203 91.9249C89.0632 91.9541 93.7501 88.7834 97.25 82.7214C100.75 76.6595 101.152 71.0151 98.3556 66.2294C95.7544 61.7783 90.8161 58.8772 85.5588 56.9281C84.8206 56.6544 84.0635 56.3949 83.2905 56.1492C84.0635 55.9034 84.8206 55.6439 85.5588 55.3702C90.8161 53.4211 95.7544 50.5201 98.3556 46.0689C101.152 41.2832 100.75 35.6388 97.25 29.5769C93.7501 23.515 89.0631 20.3442 83.5203 20.3734C78.3649 20.4005 73.3833 23.2267 69.0667 26.8051C68.1602 27.5565 67.2603 28.3604 66.3699 29.2075C66.907 27.2793 67.3463 25.3742 67.6616 23.5215C68.6022 17.994 68.559 12.2668 66.0048 7.78851C63.2586 2.97364 58.1692 0.5 51.1695 0.5ZM57.7568 60.0196C58.5452 61.5018 59.3321 63.0485 60.1004 64.6403C64.099 70.4467 68.7975 76.1777 73.5341 80.1041C77.4322 83.3355 80.8413 84.9107 83.5571 84.925C85.8855 84.9373 88.5504 83.7896 91.1878 79.2214C93.8252 74.6533 93.4867 71.7716 92.3119 69.7613C90.9416 67.4164 87.8729 65.2517 83.1254 63.4915C77.5935 61.4405 70.6421 60.2496 63.8833 59.6617C61.7927 59.8334 59.7366 59.9498 57.7568 60.0196ZM83.1254 48.8068C77.5935 50.8578 70.642 52.0487 63.8833 52.6366C61.5541 52.4453 59.2678 52.3226 57.0821 52.2566C61.6122 45.0148 67.5426 37.1609 73.534 32.1942C77.4322 28.9628 80.8413 27.3876 83.5571 27.3733C85.8855 27.361 88.5504 28.5088 91.1878 33.0769C93.8252 37.645 93.4867 40.5268 92.3119 42.5371C90.9416 44.8819 87.8729 47.0467 83.1254 48.8068ZM41.5782 87.6528C42.893 79.9265 46.7745 70.7897 50.8117 63.2142C51.8112 64.8292 52.8855 66.4881 54.0223 68.1544C57.0784 74.5567 59.7215 81.5454 60.7608 87.6528C61.6102 92.6443 61.2698 96.3843 59.9243 98.7435C58.7707 100.766 56.4443 102.5 51.1695 102.5C45.8947 102.5 43.5682 100.766 42.4147 98.7435C41.0691 96.3843 40.7288 92.6443 41.5782 87.6528ZM37.1135 59.6617C30.3546 60.2495 23.403 61.4404 17.871 63.4915C13.1235 65.2516 10.0548 67.4164 8.68447 69.7612C7.50967 71.7715 7.17119 74.6532 9.80861 79.2214C12.446 83.7895 15.1109 84.9372 17.4393 84.925C20.1551 84.9107 23.5642 83.3355 27.4623 80.1041C33.4538 75.1374 39.3843 67.2834 43.9143 60.0416C41.7287 59.9756 39.4425 59.8529 37.1135 59.6617ZM43.9142 52.2566C39.3842 45.0147 33.4537 37.1608 27.4622 32.1941C23.5641 28.9627 20.155 27.3875 17.4392 27.3732C15.1108 27.3609 12.4459 28.5086 9.80849 33.0768C7.17108 37.6449 7.50956 40.5266 8.68435 42.5369C10.0547 44.8818 13.1234 47.0465 17.8709 48.8067C23.4029 50.8577 30.3546 52.0487 37.1135 52.6365C39.4425 52.4453 41.7286 52.3226 43.9142 52.2566Z" fill="black"/>
        <circle id="center" cx="51.3389" cy="55.3389" r="13.2741" fill="#FFDA7C" stroke="black" stroke-width="7"/>
    </g>
</svg>
