<svg width="71" height="75" viewBox="0 0 71 75" fill="none" xmlns="http://www.w3.org/2000/svg">
<path fill-rule="evenodd" clip-rule="evenodd" d="M41.92 21.117C42.121 22.215 42.232 23.345 42.232 24.501C42.232 25.877 42.079 27.217 41.797 28.508L46.832 33.188L44.89 36.551L44.381 37.432L42.439 40.795L35.666 38.712C33.794 40.309 31.605 41.544 29.204 42.305L27.669 49.002H23.786H22.768H18.885L17.304 42.102C14.934 41.26 12.784 39.956 10.964 38.294L4.393 40.315L2.451 36.952L1.942 36.071L0 32.708L5.189 27.885C4.988 26.787 4.877 25.657 4.877 24.501C4.877 23.125 5.031 21.785 5.313 20.494L0.278 15.814L2.22 12.451L2.729 11.57L4.671 8.207L11.444 10.29C13.316 8.693 15.505 7.458 17.906 6.697L19.441 0H23.324H24.341H28.224L29.805 6.9C32.175 7.742 34.325 9.046 36.145 10.708L42.716 8.687L44.658 12.05L45.167 12.931L47.109 16.294L41.92 21.117ZM13.061 24.501C13.061 30.297 17.759 34.995 23.555 34.995C29.351 34.995 34.049 30.297 34.049 24.501C34.049 18.705 29.351 14.007 23.555 14.007C17.759 14.007 13.061 18.705 13.061 24.501ZM66.656 52.528C66.815 53.399 66.903 54.295 66.903 55.212C66.903 56.304 66.781 57.366 66.557 58.39L70.55 62.102L69.01 64.769L68.607 65.468L67.067 68.135L61.695 66.483C60.211 67.75 58.475 68.729 56.57 69.333L55.353 74.644H52.273H51.466H48.386L47.132 69.171C45.253 68.504 43.547 67.469 42.104 66.151L36.892 67.754L35.352 65.087L34.949 64.388L33.409 61.721L37.524 57.896C37.365 57.025 37.277 56.129 37.277 55.212C37.277 54.121 37.399 53.058 37.623 52.034L33.63 48.322L35.17 45.655L35.573 44.956L37.113 42.289L42.485 43.941C43.97 42.674 45.706 41.695 47.61 41.091L48.827 35.78H51.907H52.714H55.794L57.048 41.253C58.927 41.92 60.633 42.955 62.076 44.273L67.288 42.67L68.828 45.337L69.231 46.036L70.771 48.703L66.656 52.528ZM43.767 55.212C43.767 59.809 47.493 63.535 52.09 63.535C56.687 63.535 60.413 59.809 60.413 55.212C60.413 50.615 56.687 46.889 52.09 46.889C47.493 46.889 43.767 50.615 43.767 55.212Z" fill="#605E6D"/>
</svg>
