<svg width="76" height="76" viewBox="0 0 76 76" fill="none" xmlns="http://www.w3.org/2000/svg">
    <path fill-rule="evenodd" clip-rule="evenodd" d="M37.9474 75.8947C58.9051 75.8947 75.8947 58.9051 75.8947 37.9474C75.8947 16.9896 58.9051 0 37.9474 0C16.9896 0 0 16.9896 0 37.9474C0 58.9051 16.9896 75.8947 37.9474 75.8947ZM58.6566 50.5222V32.2742C57.9977 33.0096 57.2317 33.6761 56.3583 34.2737C51.3329 37.6751 47.5178 40.318 44.9131 42.2026C44.0398 42.8461 43.3312 43.3479 42.7873 43.7079C42.2433 44.068 41.5194 44.4357 40.6154 44.8111C39.7114 45.1865 38.8687 45.3741 38.0874 45.3741H38.0414C37.26 45.3741 36.4173 45.1865 35.5133 44.8111C34.6094 44.4357 33.8854 44.068 33.3415 43.7079C32.7976 43.3479 32.0889 42.8461 31.2156 42.2026C29.1472 40.6857 25.3398 38.0428 19.7934 34.2737C18.9201 33.6914 18.1463 33.025 17.4722 32.2742V50.5222C17.4722 51.5334 17.8322 52.3991 18.5523 53.1192C19.2725 53.8393 20.1381 54.1994 21.1494 54.1994H54.9794C55.9906 54.1994 56.8563 53.8393 57.5764 53.1192C58.2965 52.3991 58.6566 51.5334 58.6566 50.5222ZM57.5304 28.9877C58.2812 27.8846 58.6566 26.7278 58.6566 25.5174C58.6566 24.5062 58.2927 23.6405 57.5649 22.9204C56.8371 22.2003 55.9753 21.8402 54.9794 21.8402H21.1494C19.9696 21.8402 19.0618 22.2386 18.4259 23.0353C17.7901 23.832 17.4722 24.8279 17.4722 26.023C17.4722 26.9882 17.8935 28.0339 18.7362 29.1601C19.5789 30.2862 20.4752 31.1711 21.4251 31.8146C21.9461 32.1823 23.5165 33.2739 26.1365 35.0895C28.7565 36.9052 30.7636 38.3033 32.1579 39.2838C32.3111 39.3911 32.6367 39.6247 33.1347 39.9848C33.6326 40.3448 34.0463 40.6359 34.3757 40.8581C34.7051 41.0803 35.1035 41.3293 35.5708 41.6051C36.0381 41.8808 36.4786 42.0876 36.8923 42.2256C37.306 42.3635 37.689 42.4325 38.0414 42.4325H38.0874C38.4397 42.4325 38.8228 42.3635 39.2365 42.2256C39.6502 42.0877 40.0906 41.8808 40.5579 41.6051C41.0253 41.3293 41.4236 41.0803 41.7531 40.8581C42.0825 40.636 42.4961 40.3449 42.9941 39.9848C43.4919 39.6248 43.8175 39.3911 43.9708 39.2838C45.3804 38.3033 48.9657 35.8135 54.7266 31.8146C55.8451 31.0332 56.7797 30.0909 57.5304 28.9877Z" fill="white"/>
</svg>
