<svg width="76" height="76" viewBox="0 0 76 76" fill="none" xmlns="http://www.w3.org/2000/svg">
    <path d="M38 0C17.0337 0 0.0526428 17.24 0.0526428 38.5261C0.0526428 56.6317 12.2895 71.6585 28.799 75.8947C28.6084 75.4128 28.5148 74.7373 28.5148 74.0652V67.5141H23.7706C21.2095 67.5141 18.8358 66.3599 17.7926 64.2386C16.5589 61.927 16.3684 58.3629 13.2389 56.1464C12.2895 55.3759 13.0484 54.6054 14.0916 54.7005C16.0842 55.2776 17.6957 56.6284 19.2136 58.6482C20.7315 60.6712 21.3968 61.1532 24.2421 61.1532C25.5694 61.1532 27.6557 61.0581 29.5547 60.7663C30.5979 58.0678 32.3999 55.6612 34.5831 54.507C21.8716 52.966 15.8 46.6084 15.8 37.9392C15.8 34.1817 17.4115 30.6176 20.0695 27.5355C19.2169 24.5485 18.0768 18.3843 20.4506 15.9777C26.1443 15.9777 29.5579 19.7352 30.4105 20.6959C33.2558 19.7319 36.3885 19.1548 39.6116 19.1548C42.9316 19.1548 45.9673 19.7319 48.8126 20.6959C49.6652 19.7319 53.0821 15.9777 58.7726 15.9777C61.0494 18.2892 60.0063 24.5485 59.0568 27.5355C61.7147 30.5225 63.2326 34.1817 63.2326 37.9392C63.2326 46.6084 57.2547 52.966 44.64 54.3136C48.1505 56.1432 50.6179 61.3434 50.6179 65.196V73.9701C50.6179 74.2586 50.5243 74.5471 50.5243 74.8357C65.3221 69.6355 75.9474 55.3825 75.9474 38.5261C75.9474 17.24 58.9663 0 38 0Z" fill="white"/>
</svg>
