<svg width="76" height="76" viewBox="0 0 76 76" fill="none" xmlns="http://www.w3.org/2000/svg">
    <path fill-rule="evenodd" clip-rule="evenodd" d="M76 37.9474C76 58.9051 59.0104 75.8947 38.0527 75.8947C17.0949 75.8947 0.105286 58.9051 0.105286 37.9474C0.105286 16.9896 17.0949 0 38.0527 0C59.0104 0 76 16.9896 76 37.9474ZM60.7258 56.6457V41.0009C60.7258 32.6231 56.2518 28.724 50.2842 28.724C45.4645 28.724 43.3147 31.3757 42.1093 33.2305V29.3646H33.0375C33.1592 31.9236 33.0375 56.6451 33.0375 56.6451H42.1086V41.4088C42.1086 40.5909 42.1702 39.7812 42.409 39.1981C43.0665 37.5665 44.5553 35.8815 47.0616 35.8815C50.3457 35.8815 51.6553 38.3844 51.6553 42.0494V56.6457H60.7258ZM42.1093 33.2305V33.3198H42.0491C42.0577 33.3044 42.069 33.2887 42.0804 33.2729C42.0905 33.2589 42.1007 33.2448 42.1093 33.2305ZM18.4154 20.9273C18.4154 18.2512 20.4454 16.2145 23.5483 16.2145C26.6518 16.2145 28.5587 18.2512 28.6189 20.9273C28.6189 23.5465 26.6518 25.6421 23.4881 25.6421H23.4292C20.3865 25.6421 18.4154 23.5465 18.4154 20.9273ZM28.0223 56.6457H18.9545V29.3646H28.0223V56.6457Z" fill="white"/>
</svg>
