<svg width="110" height="117" viewBox="0 0 110 117" fill="none" xmlns="http://www.w3.org/2000/svg">
<rect width="110" height="117" fill="#F5F5F5"/>
<g id="portfolio">
<rect width="1440" height="4096" transform="translate(-339 -2090)" fill="white"/>
<g id="sml-blue-flwr">
<g id="petal-fill">
<path id="Vector 10" d="M54.8606 59.626C65.0369 41.0468 88.6902 9.60516 101.892 32.4721C115.095 55.339 76.0388 60.1026 54.8606 59.626Z" fill="#C7EBF3"/>
<path id="Vector 6" d="M54.8742 59.6258C33.696 60.1024 -5.35992 55.3388 7.8423 32.4719C21.0445 9.60497 44.6978 41.0466 54.8742 59.6258Z" fill="#C7EBF3"/>
<path id="Vector 8" d="M55.5794 58.0005C66.5813 76.1031 81.9838 112.308 55.5794 112.308C29.1749 112.308 44.5775 76.1031 55.5794 58.0005Z" fill="#C7EBF3"/>
<path id="Vector 7" d="M54.8743 58.7146C44.6979 77.2938 21.0446 108.735 7.84242 85.8685C-5.35981 63.0016 33.6961 58.238 54.8743 58.7146Z" fill="#C7EBF3"/>
<path id="Vector 9" d="M54.8606 58.7147C76.0388 58.2381 115.095 63.0016 101.892 85.8686C88.6902 108.735 65.0369 77.2939 54.8606 58.7147Z" fill="#C7EBF3"/>
<path id="Vector 5" d="M55.5794 58.3082C44.5775 40.2057 29.1749 4.00049 55.5794 4.00049C81.9838 4.00049 66.5812 40.2057 55.5794 58.3082Z" fill="#C7EBF3"/>
</g>
<g id="outline">
<path id="Vector 11" d="M54.8605 59.6259C65.0369 41.0468 88.6902 9.60516 101.892 32.4721C115.095 55.339 76.0388 60.1025 54.8605 59.6259Z" stroke="black" stroke-width="8"/>
<path id="Vector 12" d="M54.8742 59.6258C33.696 60.1024 -5.35992 55.3388 7.8423 32.4719C21.0445 9.60498 44.6978 41.0466 54.8742 59.6258Z" stroke="black" stroke-width="8"/>
<path id="Vector 13" d="M55.5794 58.0005C66.5812 76.1031 81.9838 112.308 55.5794 112.308C29.1749 112.308 44.5775 76.1031 55.5794 58.0005Z" stroke="black" stroke-width="8"/>
<path id="Vector 14" d="M54.8743 58.7146C44.6979 77.2938 21.0446 108.735 7.84242 85.8685C-5.3598 63.0016 33.6961 58.238 54.8743 58.7146Z" stroke="black" stroke-width="8"/>
<path id="Vector 15" d="M54.8605 58.7147C76.0388 58.2381 115.095 63.0016 101.892 85.8686C88.6902 108.735 65.0369 77.2939 54.8605 58.7147Z" stroke="black" stroke-width="8"/>
<path id="Vector 16" d="M55.5794 58.3082C44.5775 40.2056 29.1749 4.00049 55.5794 4.00049C81.9838 4.00049 66.5812 40.2056 55.5794 58.3082Z" stroke="black" stroke-width="8"/>
<circle id="center" cx="55.7717" cy="58.2988" r="14.0418" fill="#FFDA7C" stroke="black" stroke-width="8"/>
</g>
</g>
</g>
</svg>
